# xmcd CD database file
#
# Track frame offsets:
#	150
#	17990
#	38920
#	61338
#	87530
#	107965
#	126265
#	149322
#	168722
#	186017
#	203740
#
# Disc length: 2940 seconds
#
# Revision: 1
# Processed by: cddbd v1.5.2PL0 Copyright (c) Steve Scherf et al.
# Submitted via: CDex 1.70beta2
#
DISCID=a20b7a0b
DTITLE=陳妃平 - 淡妝
DYEAR=1900
DGENRE=Pop
TTITLE0=雪精靈
TTITLE1=最近一次想
TTITLE2=淡妝
TTITLE3=你心如我
TTITLE4=婚禮
TTITLE5=風花
TTITLE6=sweet home
TTITLE7=海的女兒
TTITLE8=不離不棄
TTITLE9=蘋果花
TTITLE10=相伴到永遠
EXTD=
EXTT0=
EXTT1=
EXTT2=
EXTT3=
EXTT4=
EXTT5=
EXTT6=
EXTT7=
EXTT8=
EXTT9=
EXTT10=
PLAYORDER=
